<svg 
viewBox="0 0 348 140" 
id="svgContainer" xmlns="http://www.w3.org/2000/svg"><path d="M 71.500 88 C 71.160 88.550, 71.332 89, 71.882 89 C 72.432 89, 73.160 88.550, 73.500 88 C 73.840 87.450, 73.668 87, 73.118 87 C 72.568 87, 71.840 87.450, 71.500 88 M 95.729 112.604 C 95.328 113.005, 95 114.023, 95 114.867 C 95 115.992, 95.296 116.104, 96.112 115.287 C 96.724 114.676, 97.052 113.657, 96.842 113.025 C 96.631 112.392, 96.130 112.203, 95.729 112.604 M 185.336 114.180 C 173.206 115.518, 166.766 121.803, 168.163 130.940 C 168.487 133.058, 168.652 133.012, 172.500 129.733 C 179.344 123.902, 193.366 115.981, 191.500 119 C 191.160 119.550, 191.385 120, 192 120 C 194.027 120, 192.073 121.765, 189.265 122.470 C 184.811 123.587, 183.243 125.349, 186.100 126.024 C 188.109 126.498, 187.651 126.877, 183.061 128.541 C 176.637 130.869, 175.313 132.955, 180.167 133.099 C 182.941 133.182, 182.493 133.457, 177.500 134.738 C 169.175 136.875, 168.732 139.387, 176.476 140.549 C 187.412 142.189, 198.649 128.797, 198.983 113.726 C 199.001 112.921, 195.779 113.028, 185.336 114.180 M 143.678 119.750 C 142.038 122.544, 148.639 136.545, 152.135 137.686 C 159.202 139.993, 160.440 138.574, 156.484 132.700 C 152.163 126.283, 152.709 125.726, 158.726 130.414 L 163.488 134.125 164.260 130.409 C 165.609 123.921, 146.913 114.239, 143.678 119.750 M 275 121.031 C 275 121.564, 275.675 122, 276.500 122 C 277.325 122, 278 121.823, 278 121.607 C 278 121.391, 277.325 120.955, 276.500 120.638 C 275.675 120.322, 275 120.499, 275 121.031" stroke="none" fill="#7ccb4f" fill-rule="evenodd"></path>

<path d="M 146.427 16.040 C 81.556 20.411, 25.210 68.560, 19.008 124.923 C 17.727 136.572, 17.863 137.005, 22.809 136.985 C 28.539 136.961, 29.136 136.106, 30.106 126.538 C 40.461 24.380, 195.071 -12.825, 275.563 67.471 C 295.369 87.229, 300.385 97.587, 304.391 127 L 305.549 135.500 310.775 135.802 L 316 136.105 315.999 131.802 C 315.992 111.892, 305.289 82.673, 293.521 70.439 C 252.325 27.614, 209.533 11.788, 146.427 16.040 M 153.690 35.055 C 149.944 35.490, 145.444 36.353, 143.690 36.972 C 141.935 37.591, 135.994 38.499, 130.487 38.989 C 118.150 40.088, 117.774 40.232, 114.569 45.075 C 111.700 49.411, 110 50.099, 110 46.925 C 110 44.931, 109.795 44.963, 104.750 47.760 C 91.381 55.170, 90.875 55.703, 96.750 56.190 L 100.500 56.500 97 58.746 C 94.719 60.210, 91.933 60.999, 89 61.012 C 79.190 61.053, 79.842 62.672, 93.436 72.034 C 97.801 75.040, 106.146 82.073, 111.981 87.663 C 132.881 107.684, 143.754 116, 149.032 116 C 151.569 116, 155.773 116.726, 158.376 117.612 C 164.774 119.792, 164.485 121.421, 163.323 89.737 C 162.754 74.207, 162.492 55.313, 162.742 47.750 C 163.110 36.617, 162.940 34.025, 161.848 34.131 C 161.107 34.204, 157.435 34.619, 153.690 35.055 M 171 38.843 C 171 43.395, 171.262 44.028, 173.372 44.557 C 176.254 45.281, 178.537 49.191, 177.533 51.683 C 176.855 53.362, 176.737 53.337, 175.970 51.352 C 174.897 48.575, 173.754 47.915, 171.952 49.034 C 170.636 49.851, 170.173 111.506, 171.474 112.807 C 171.659 112.992, 173.916 112.429, 176.490 111.555 C 179.064 110.681, 185.143 109.684, 190 109.339 C 197.051 108.839, 199.301 108.283, 201.165 106.581 C 202.449 105.409, 208.900 99.985, 215.500 94.528 C 236.396 77.250, 252 63.720, 252 62.878 C 252 58.889, 218.726 41.291, 207.840 39.523 C 203.253 38.778, 196.549 37.482, 192.943 36.644 C 189.337 35.805, 182.925 34.805, 178.693 34.421 L 171 33.724 171 38.843 M 183.897 40.883 C 181.853 42.537, 181.715 43.078, 182.752 45.355 C 184.307 48.767, 188.438 49.818, 191.040 47.464 C 196.331 42.675, 189.479 36.362, 183.897 40.883 M 145.659 42.447 C 144.746 44.827, 145.964 46.953, 148.623 47.620 C 151.619 48.372, 154.195 46.365, 153.798 43.588 C 153.415 40.906, 146.616 39.954, 145.659 42.447 M 204.455 47.455 C 200.545 51.364, 201.640 55.982, 206.911 57.819 C 215.676 60.875, 222.366 51.632, 214.750 46.989 C 210.422 44.350, 207.424 44.486, 204.455 47.455 M 121.250 47.989 C 115.068 51.758, 118.709 58.705, 126.331 57.682 C 132.933 56.797, 134.800 52.709, 130.545 48.455 C 127.576 45.485, 125.526 45.382, 121.250 47.989 M 136.667 46.667 C 136.300 47.033, 136 48.158, 136 49.167 C 136 51.476, 139.807 51.666, 140.677 49.399 C 141.497 47.263, 138.269 45.064, 136.667 46.667 M 193.146 52.324 C 192.241 53.414, 192.290 53.996, 193.361 54.885 C 195.174 56.389, 198.185 55.199, 197.788 53.136 C 197.380 51.019, 194.628 50.538, 193.146 52.324 M 148.544 54.928 C 148.229 55.438, 148.903 56.152, 150.042 56.513 C 152.449 57.277, 152.294 59.786, 149.741 61.393 C 147.114 63.047, 142.414 60.120, 142.762 57.046 C 142.983 55.088, 142.793 54.927, 141.512 55.990 C 137.717 59.140, 141.641 65, 147.545 65 C 151.036 65, 156 61.504, 156 59.045 C 156 56.084, 149.909 52.720, 148.544 54.928 M 227.500 56.161 C 221.726 59.336, 220.422 65.193, 224.624 69.076 C 226.993 71.264, 227.190 71.306, 226.646 69.500 C 225.378 65.290, 230.684 59.950, 234.061 62.038 C 235.161 62.718, 235.041 63.042, 233.472 63.623 C 230.896 64.578, 230.136 65.804, 230.724 68.054 C 231.747 71.964, 240.712 71.275, 242.939 67.114 C 247.053 59.428, 235.920 51.530, 227.500 56.161 M 183.239 56.645 C 181.010 57.580, 179.832 60.818, 180.956 62.919 C 183.102 66.929, 192 66.149, 192 61.951 C 192 58.382, 186.721 55.185, 183.239 56.645 M 109 58.566 C 109 58.877, 109.481 60.031, 110.069 61.130 C 111.250 63.336, 109.817 66, 107.449 66 C 105.487 66, 102.812 62.933, 103.411 61.371 C 104.060 59.680, 102.816 59.584, 101.200 61.200 C 98.697 63.703, 99.764 68.003, 103.250 69.460 C 111.237 72.797, 118.627 65.627, 113 60 C 111.099 58.099, 109 57.346, 109 58.566 M 123.104 62.914 C 118.476 65.845, 124.701 68.175, 131.839 66.184 L 137.178 64.694 133.974 63.347 C 130.327 61.814, 125.167 61.608, 123.104 62.914 M 212.480 63.032 C 212.092 63.660, 212.245 64.645, 212.820 65.220 C 214.164 66.564, 217.297 65.392, 216.750 63.749 C 216.194 62.078, 213.364 61.602, 212.480 63.032 M 198.500 67.462 C 196.850 68.195, 193.588 69.585, 191.250 70.550 C 188.387 71.731, 187 72.915, 187 74.177 C 187 76.922, 182.345 78.456, 179.557 76.629 C 173.725 72.808, 172.669 77.912, 177.481 86.667 L 180.962 93 178.040 93 C 174.606 93, 173.337 94.497, 175.036 96.544 C 176.772 98.635, 179.758 98.337, 180.500 96 C 180.880 94.802, 182.010 94.002, 183.317 94.005 C 187.402 94.014, 195 90.703, 195 88.913 C 195 83.962, 203.461 80.648, 207.514 84.012 C 209.030 85.270, 213.515 84.647, 215.641 82.883 C 217.305 81.502, 216.159 78.275, 213.784 77.654 C 212.220 77.245, 211.889 76.577, 212.347 74.752 C 213.840 68.807, 205.432 64.380, 198.500 67.462 M 154 68.500 C 154 69.333, 154.889 70, 156 70 C 157.111 70, 158 69.333, 158 68.500 C 158 67.667, 157.111 67, 156 67 C 154.889 67, 154 67.667, 154 68.500 M 69.822 74.167 C 56.090 88.669, 54.022 92.129, 49 109 C 47.281 114.775, 45.003 122.415, 43.937 125.978 C 42.872 129.541, 42 133.479, 42 134.728 L 42 137 64.776 137 C 77.303 137, 91.366 137.485, 96.026 138.079 C 102.218 138.867, 109.077 138.841, 121.500 137.982 C 141.777 136.581, 141.826 136.571, 139.650 134.165 C 138.528 132.926, 138.348 132.052, 139.065 131.335 C 140.690 129.710, 138.197 121.500, 135.103 118.283 C 133.631 116.752, 127.268 110.783, 120.963 105.018 C 114.658 99.253, 108.444 93.493, 107.153 92.217 C 104.159 89.258, 102.497 89.840, 102.510 93.845 C 102.515 95.580, 102.233 97, 101.882 97 C 100.128 97, 98.500 93.195, 98.500 89.095 L 98.500 84.500 94.500 84.500 C 90.743 84.500, 90.498 84.320, 90.462 81.542 C 90.432 79.176, 89.330 77.713, 84.962 74.237 C 75.869 67.001, 76.605 67.004, 69.822 74.167 M 135.378 70.437 C 128.621 73.378, 127.018 80.171, 131.923 85.077 C 134.981 88.135, 138.616 88.811, 142.066 86.965 C 145.876 84.925, 143.597 78.461, 139.324 79.189 C 138.080 79.401, 137.400 78.796, 137.185 77.285 C 136.530 72.682, 146.149 73.519, 149.540 78.360 C 152.996 83.294, 149.479 91.203, 143.220 92.572 C 141.724 92.899, 139.889 93.359, 139.143 93.593 C 132.518 95.674, 124 87.694, 124 79.406 C 124 73.238, 122.742 72.979, 120.369 78.659 C 113.353 95.451, 145.159 105.671, 155.750 90.028 C 163.181 79.052, 148.351 64.791, 135.378 70.437 M 199.338 70.008 C 194.931 71.766, 195.220 78.373, 199.781 80.107 C 204.672 81.966, 209.896 75.806, 206.788 71.844 C 205.099 69.691, 202.029 68.934, 199.338 70.008 M 248.466 75.611 C 244.085 79.247, 238.449 84.084, 235.941 86.361 C 233.434 88.637, 225.629 95.222, 218.597 100.993 C 206.028 111.306, 204 113.435, 204 116.311 C 204 117.424, 205.003 117.641, 208.383 117.260 C 215.557 116.452, 220.046 123.412, 215.088 127.657 C 214.036 128.557, 213.409 129.903, 213.695 130.647 C 213.980 131.391, 213.753 132, 213.189 132 C 212.625 132, 211.452 132.273, 210.582 132.607 C 209.553 133.002, 209 132.665, 209 131.642 C 209 130.286, 206.230 128, 204.586 128 C 203.849 128, 200 135.624, 200 137.085 C 200 138.259, 207.837 138.181, 269.844 136.383 L 292.188 135.735 291.719 133.118 C 290.996 129.076, 288.048 115.932, 286.928 111.750 C 286.232 109.153, 285.362 108, 284.098 108 C 279.364 108, 275.692 101.112, 278.468 97.441 C 281.523 93.402, 279.086 86.923, 274.786 87.651 C 271.008 88.290, 267.180 84.608, 268.833 81.925 C 270.061 79.931, 269.750 79.344, 264.833 74.395 C 258.127 67.646, 258.057 67.652, 248.466 75.611 M 111.032 74.773 C 107.360 77.746, 110.847 82.223, 115.072 79.961 C 117.544 78.638, 117.555 75.368, 115.093 74.050 C 113.651 73.278, 112.660 73.455, 111.032 74.773 M 222.853 75.062 C 221.959 75.563, 220.925 77.585, 220.555 79.557 C 220.185 81.529, 219.636 83.785, 219.334 84.571 C 218.376 87.068, 221.093 86.112, 224.099 82.894 C 228.244 78.457, 227.308 72.569, 222.853 75.062 M 253.875 79.506 C 246.676 83.418, 252.103 93.552, 259.574 90.148 C 262.904 88.631, 262.647 86.921, 259.194 87.611 C 257.299 87.990, 255.956 87.652, 255.056 86.567 C 252.951 84.031, 256.463 80.718, 260.730 81.217 C 264.379 81.643, 265.011 80.611, 262.066 79.035 C 259.474 77.648, 257.037 77.788, 253.875 79.506 M 74.700 80.214 C 70.898 81.223, 67.852 84.497, 67.290 88.181 C 67.052 89.739, 67.328 89.895, 68.870 89.070 C 71.261 87.790, 72.210 88.739, 70.930 91.131 C 70.089 92.703, 70.293 92.999, 72.215 92.996 C 77.528 92.988, 84 86.143, 84 80.532 C 84 78.765, 80.605 78.649, 74.700 80.214 M 181.621 84.521 C 179.685 86.458, 179.611 87.211, 181.200 88.800 C 184.065 91.665, 189.427 88.489, 187.335 85.166 C 185.882 82.859, 183.547 82.596, 181.621 84.521 M 85.750 92.080 C 82.202 94.146, 84.556 100, 88.934 100 C 90.245 100, 94 96.346, 94 95.071 C 94 91.936, 89.068 90.147, 85.750 92.080 M 200.250 92.662 C 198.556 93.346, 198.669 96.480, 200.440 97.950 C 202.540 99.693, 207.413 98.869, 207.824 96.702 C 208.502 93.131, 204.448 90.969, 200.250 92.662 M 236.250 93.488 C 233.564 95.428, 233.189 100.447, 235.628 101.812 C 237.741 102.994, 236.747 103.521, 229.661 104.978 C 220.553 106.851, 218.103 110.194, 222.566 114.657 C 225.778 117.868, 229.245 117.385, 235.570 112.842 C 240.260 109.474, 241.878 109.492, 240.058 112.891 C 237.460 117.745, 246.399 120.914, 253.024 117.487 C 259.853 113.956, 257.718 100.991, 249.257 94.609 C 245.802 92.003, 239.106 91.426, 236.250 93.488 M 257.336 95.567 C 257.005 96.429, 257.214 97.614, 257.800 98.200 C 259.355 99.755, 262 98.390, 262 96.031 C 262 93.565, 258.247 93.192, 257.336 95.567 M 155.480 97.032 C 155.092 97.660, 155.245 98.645, 155.820 99.220 C 157.164 100.564, 160.297 99.392, 159.750 97.749 C 159.194 96.078, 156.364 95.602, 155.480 97.032 M 264.200 99.200 C 261.770 101.630, 264.567 105, 269.012 105 C 272.429 105, 273.405 103.751, 272.575 100.443 C 271.890 97.715, 266.487 96.913, 264.200 99.200 M 59.874 99.960 C 56.562 101.997, 53.523 111.793, 54.966 115.781 C 56.371 119.667, 54.811 122, 50.809 122 C 48.200 122, 48.533 125.464, 51.317 127.288 C 53.484 128.708, 66.109 133, 68.118 133 C 70.756 133, 73.454 124.038, 71.707 121.081 C 68.753 116.080, 71.016 112, 76.744 112 C 79.231 112, 81.664 108.173, 80.728 105.733 C 79.566 102.705, 62.909 98.094, 59.874 99.960 M 190 102 C 190 102.550, 190.900 103, 192 103 C 193.100 103, 194 102.550, 194 102 C 194 101.450, 193.100 101, 192 101 C 190.900 101, 190 101.450, 190 102 M 146.316 103.084 C 143.732 105.668, 147.593 109.861, 151.261 108.454 C 155.003 107.017, 153.634 102, 149.500 102 C 148.345 102, 146.912 102.488, 146.316 103.084 M 179.529 103.355 C 176.764 105.377, 177.968 108.500, 181.514 108.500 C 183.822 108.500, 184.571 108.004, 184.811 106.318 C 185.226 103.403, 181.965 101.574, 179.529 103.355 M 61.170 103.874 C 58.990 105.256, 60.177 110.257, 63.069 111.872 C 66.641 113.867, 71.005 112.687, 70.985 109.731 C 70.952 104.935, 65.051 101.414, 61.170 103.874 M 95.500 104.103 C 83.885 107.674, 81.161 122.682, 90.904 129.433 C 106.586 140.301, 126.027 130.277, 119.512 114.682 C 116.088 106.488, 104.437 101.355, 95.500 104.103 M 137.229 104.188 C 137.847 106.042, 140 106.349, 140 104.583 C 140 103.713, 139.287 103, 138.417 103 C 137.546 103, 137.011 103.534, 137.229 104.188 M 274.500 109 C 273.663 110.354, 274.792 112, 276.559 112 C 277.352 112, 278 111.100, 278 110 C 278 107.930, 275.587 107.240, 274.500 109 M 103.537 110.606 C 101.639 112.504, 103.074 115, 106.063 115 C 108.394 115, 109.297 113.512, 108.497 110.991 C 107.734 108.586, 105.714 108.429, 103.537 110.606 M 262.362 110.500 C 262.045 111.325, 262.057 112.707, 262.389 113.570 C 263.214 115.722, 267.385 114.995, 267.838 112.620 C 268.440 109.465, 263.494 107.550, 262.362 110.500 M 155.446 111.087 C 155.077 111.685, 155.166 112.566, 155.645 113.045 C 156.828 114.228, 159.431 112.507, 158.569 111.112 C 157.696 109.698, 156.311 109.687, 155.446 111.087 M 209.644 111.485 C 209.286 112.418, 209.647 113.311, 210.517 113.645 C 212.589 114.440, 215.249 113.251, 214.755 111.749 C 214.131 109.855, 210.345 109.659, 209.644 111.485 M 93.345 112.543 C 92.535 114.653, 93.887 115.793, 95.039 113.971 C 96.263 112.035, 96.239 111, 94.969 111 C 94.401 111, 93.671 111.694, 93.345 112.543 M 123.363 115.497 C 123.017 116.398, 123.196 117.596, 123.761 118.161 C 125.391 119.791, 128.500 118.692, 128.500 116.486 C 128.500 113.943, 124.272 113.128, 123.363 115.497 M 268.636 118.636 C 264.056 123.217, 266.513 131, 272.539 131 C 275 131, 275 131, 273 129 C 270.743 126.743, 270.418 123.982, 272.200 122.200 C 274.064 120.336, 274.520 120.740, 274.510 124.250 C 274.501 127.017, 274.890 127.545, 277.124 127.804 C 282.652 128.445, 284.657 123.080, 280.548 118.646 C 277.214 115.049, 272.228 115.045, 268.636 118.636 M 111.336 120.567 C 110.426 122.939, 112.559 124.611, 114.470 123.025 C 115.654 122.042, 115.754 121.409, 114.890 120.367 C 113.392 118.563, 112.077 118.637, 111.336 120.567 M 60 121.417 C 60 122.196, 60.563 123.060, 61.250 123.338 C 62.250 123.741, 62.250 123.858, 61.250 123.921 C 60.563 123.964, 60 124.884, 60 125.965 C 60 128.094, 62.736 130.004, 64.750 129.282 C 66.504 128.653, 66.313 124.334, 64.500 123.638 C 63.675 123.322, 63 122.374, 63 121.531 C 63 120.689, 62.325 120, 61.500 120 C 60.675 120, 60 120.638, 60 121.417 M 94.250 120.718 C 92.496 121.347, 92.688 124.943, 94.513 125.643 C 96.053 126.234, 99 124.441, 99 122.913 C 99 121.703, 95.725 120.190, 94.250 120.718 M 225.128 121.346 C 223.766 122.987, 225.995 126, 228.571 126 C 229.357 126, 230 126.810, 230 127.800 C 230 131.336, 234.056 133.067, 238.418 131.393 C 242.544 129.810, 237.866 123.494, 233.397 124.615 C 231.613 125.063, 231.095 124.704, 230.831 122.838 C 230.442 120.087, 226.934 119.169, 225.128 121.346 M 127.571 123.571 C 124.350 126.793, 126.786 132, 131.515 132 C 133.623 132, 137 128.809, 137 126.816 C 137 123.353, 130.148 120.995, 127.571 123.571 M 242 123.858 C 242 125.151, 248.106 128.883, 252.092 130.026 C 257.175 131.484, 261.256 128.039, 257.750 125.251 C 255.997 123.856, 242 122.618, 242 123.858 M 102.357 126.513 C 101.543 128.634, 103.921 131.154, 106.402 130.798 C 108.830 130.450, 109.808 127.127, 107.848 125.885 C 105.730 124.542, 102.993 124.855, 102.357 126.513 M 78.750 127.088 C 75.334 129.062, 77.664 134.609, 81.582 133.833 C 83.745 133.404, 86.131 129.818, 85.210 128.379 C 84.106 126.655, 80.684 125.971, 78.750 127.088 M 221.250 128.662 C 219.492 129.372, 219.688 132, 221.500 132 C 222.333 132, 223 131.111, 223 130 C 223 128.900, 222.887 128.036, 222.750 128.079 C 222.613 128.122, 221.938 128.385, 221.250 128.662 M 119.510 131.984 C 118.773 133.177, 119.709 135, 121.059 135 C 122.276 135, 122.284 132.293, 121.069 131.543 C 120.557 131.226, 119.856 131.425, 119.510 131.984" stroke="none" fill="#e8840d" fill-rule="evenodd"></path></svg>